<svg xmlns="http://www.w3.org/2000/svg" width="27" height="26" fill="none"><path fill="#FF8B00" d="M12.037.896c.201-.398.496-.664.883-.796a1.74 1.74 0 0 1 1.16 0c.387.132.681.398.883.796l3.28 6.575 7.368 1.046c.437.066.782.265 1.034.597.253.332.37.698.353 1.096a1.52 1.52 0 0 1-.479 1.046l-5.349 5.13 1.262 7.271c.067.399-.009.772-.227 1.12a1.48 1.48 0 0 1-.934.673c-.404.1-.79.05-1.16-.15L13.5 21.915l-6.61 3.387a1.58 1.58 0 0 1-1.161.15 1.48 1.48 0 0 1-.934-.673 1.556 1.556 0 0 1-.227-1.12l1.262-7.272-5.349-5.13a1.52 1.52 0 0 1-.48-1.046 1.65 1.65 0 0 1 .354-1.096 1.535 1.535 0 0 1 1.034-.597L8.757 7.47l3.28-6.575Z"/></svg>